<svg xmlns="http://www.w3.org/2000/svg" viewBox="36.6 -21.8 80.3 54.1"><path fill="#999" d="M110.8 32.4c-3.8 0-6-1.9-6.2-4.7h3.6c0 .9.5 2.1 2.8 2.2 1.5 0 2.3-.9 2.3-1.6-.1-1.1-1.4-1.2-2.9-1.4-1.4-.2-2.7-.5-3.6-1-1.1-.6-1.9-1.9-1.9-3.3 0-2.4 2.1-4.4 5.6-4.4 3.4 0 5.6 1.8 5.8 4.5h-3.4c0-.7-.2-1.8-2.2-1.8-1.4 0-2.3.3-2.3 1.2 0 1.4 2.8 1.3 5.1 1.9 2.1.5 3.5 1.8 3.5 3.7-.1 3.4-2.9 4.7-6.2 4.7M45.2 9.7l11.9-6.8 6.3 10.8H47.6M68.4 18.4h3.4v13.7h-3.4zM43.7 32.4c-3.9 0-7.1-3.2-7.1-7.1 0-3.9 3.2-7 7.1-7 1.5 0 2.9.4 4.1 1.2v-1.1h3.3v13.7h-3.3v-.9c-1.2.7-2.6 1.2-4.1 1.2m-3.9-7.1c0 2.1 1.8 3.9 3.9 3.9 2.2 0 4-1.8 4-3.9 0-2.1-1.8-3.9-4-3.9-2.1 0-3.9 1.8-3.9 3.9M89.2 13.8L72.7-14.9l11.9-6.9 20.5 35.6M59.4 32.4c-3.9 0-7.1-3.2-7.1-7.1 0-3.9 3.2-7 7.1-7 1.5 0 2.8.4 4 1.2v-5.7h3.4v18.3h-3.4v-.9c-1.2.7-2.5 1.2-4 1.2m-3.9-7.1c0 2.1 1.8 3.9 4 3.9 2.1 0 3.9-1.8 3.9-3.9 0-2.1-1.8-3.9-3.9-3.9-2.2 0-4 1.8-4 3.9M59.1-2.4L71-9.3l13.3 23.1H71.8v3.3h-3.4v-3.3M114.7 14c-.8 0-1.4.6-1.4 1.4 0 .8.6 1.4 1.4 1.4s1.4-.6 1.4-1.4c0-.8-.6-1.4-1.4-1.4m0 3.1c-.9 0-1.7-.8-1.7-1.7 0-.9.8-1.7 1.7-1.7.9 0 1.7.8 1.7 1.7 0 1-.8 1.7-1.7 1.7"/><path fill="#999" d="M114.7 14.7h-.3v.7h.3c.2 0 .3-.1.3-.3.1-.2-.1-.4-.3-.4m.4 1.7l-.4-.8h-.3v.8h-.3v-1.8h.6c.3 0 .6.2.6.6 0 .3-.2.4-.4.5l.4.8h-.2zM95.9 32.4c-3.9 0-7.1-3.2-7.1-7.1 0-3.9 3.2-7 7.1-7 1.5 0 2.9.4 4 1.2v-1.1h3.4v13.7h-3.4v-.9c-1.1.7-2.5 1.2-4 1.2m-3.8-7.1c0 2.1 1.8 3.9 3.9 3.9 2.1 0 3.9-1.8 3.9-3.9 0-2.1-1.8-3.9-3.9-3.9-2.1 0-3.9 1.8-3.9 3.9M84.3 13.8h3.3v18.3h-3.3v-.9c-1.1.8-2.5 1.2-4.1 1.2-3.9 0-7.1-3.2-7.1-7.1 0-3.9 3.2-7 7.1-7 1.5 0 2.9.4 4.1 1.2v-5.7zm-7.8 11.5c0 2.1 1.8 3.9 3.9 3.9 2.2 0 4-1.8 4-3.9 0-2.1-1.8-3.9-4-3.9-2.1 0-3.9 1.8-3.9 3.9"/></svg>