<?xml version="1.0" encoding="UTF-8"?>
<svg width="254px" height="157px" viewBox="0 0 254 157" version="1.1" xmlns="http://www.w3.org/2000/svg" xmlns:xlink="http://www.w3.org/1999/xlink">
    <!-- Generator: Sketch 47.1 (45422) - http://www.bohemiancoding.com/sketch -->
    <title>Fill 1</title>
    <desc>Created with Sketch.</desc>
    <defs></defs>
    <g id="Page-1" stroke="none" stroke-width="1" fill="none" fill-rule="evenodd">
        <g id="converse_logoeps.com" transform="translate(-140.000000, 0.000000)" fill="#1A1919">
            <path d="M262.678,0.129 C232.427,0.129 207.903,24.652 207.903,54.904 C207.903,85.155 232.427,109.677 262.678,109.677 C292.929,109.677 317.451,85.155 317.451,54.904 C317.451,24.652 292.929,0.129 262.678,0.129 Z M309.449,54.904 C309.449,80.735 288.507,101.674 262.678,101.674 C236.847,101.674 215.906,80.735 215.906,54.904 C215.906,29.074 236.847,8.132 262.678,8.132 C288.507,8.132 309.449,29.074 309.449,54.904 Z M262.678,21.195 L270.429,45.059 L295.519,45.059 L275.222,59.803 L282.974,83.666 L262.678,68.918 L242.381,83.666 L250.133,59.803 L229.837,45.059 L254.925,45.059 L262.678,21.195 Z M176.108,150.557 L188.166,150.557 L188.166,133.054 L176.108,133.054 L176.108,150.557 Z M170.079,133.378 C170.079,130.157 172.692,127.543 175.914,127.543 L188.359,127.543 C191.582,127.543 194.194,130.157 194.194,133.378 L194.194,150.233 C194.194,153.456 191.582,156.067 188.359,156.067 L175.914,156.067 C172.692,156.067 170.079,153.456 170.079,150.233 L170.079,133.378 Z M140.066,133.378 C140.066,130.157 142.679,127.543 145.9,127.543 L160.875,127.543 L160.875,133.054 L146.095,133.054 L146.095,150.557 L160.875,150.557 L160.875,156.067 L145.9,156.067 C142.679,156.067 140.066,153.456 140.066,150.233 L140.066,133.378 Z M239.312,127.543 L246.053,151.272 L253.184,127.543 L260.055,127.543 L250.85,156.067 L241.385,156.067 L232.569,127.543 L239.312,127.543 Z M320.464,134.159 L320.464,139.083 C320.464,142.068 318.226,144.526 315.337,144.874 L320.988,156.067 L314.203,156.067 L309.273,144.917 L303.746,144.917 L303.746,156.067 L297.716,156.067 L297.716,127.543 L314.63,127.543 C317.851,127.543 320.464,130.157 320.464,133.378 L320.464,134.159 Z M303.746,139.407 L314.435,139.407 L314.435,133.054 L303.746,133.054 L303.746,139.407 Z M206.38,127.543 L219.669,127.543 C222.892,127.543 225.504,130.157 225.504,133.378 L225.504,156.067 L219.475,156.067 L219.475,133.054 L209.428,133.054 L209.428,156.067 L203.399,156.067 L203.399,127.543 L206.38,127.543 Z M286.892,156.067 L272.894,156.067 C269.675,156.067 267.063,153.456 267.063,150.233 L267.063,133.378 C267.063,130.157 269.675,127.543 272.894,127.543 L286.892,127.543 L286.892,133.054 L273.089,133.054 L273.089,139.407 L286.892,139.407 L286.892,144.917 L273.089,144.917 L273.089,150.557 L286.892,150.557 L286.892,156.067 Z M381.404,156.067 L367.41,156.067 C364.187,156.067 361.574,153.456 361.574,150.233 L361.574,133.378 C361.574,130.157 364.187,127.543 367.41,127.543 L381.404,127.543 L381.404,133.054 L367.605,133.054 L367.605,139.407 L381.404,139.407 L381.404,144.917 L367.605,144.917 L367.605,150.557 L381.404,150.557 L381.404,156.067 Z M349.771,127.543 L349.771,133.054 L335.97,133.054 L335.97,139.278 L345.451,139.278 C348.673,139.278 351.285,141.889 351.285,145.113 L351.285,150.233 C351.285,153.456 348.673,156.067 345.451,156.067 L329.416,156.067 L329.416,150.557 L345.255,150.557 L345.255,144.788 L335.775,144.788 C332.552,144.788 329.941,142.178 329.941,138.954 L329.941,133.378 C329.941,130.157 332.552,127.543 335.775,127.543 L349.771,127.543 Z M386.697,132.443 C386.697,134.339 388.214,135.762 390.019,135.762 C391.82,135.762 393.328,134.339 393.328,132.443 C393.328,130.584 391.82,129.165 390.019,129.165 C388.214,129.165 386.697,130.584 386.697,132.443 Z M387.298,132.443 C387.298,130.869 388.478,129.65 390.019,129.65 C391.544,129.65 392.73,130.869 392.73,132.443 C392.73,134.058 391.544,135.277 390.019,135.277 C388.478,135.277 387.298,134.058 387.298,132.443 Z M388.736,134.386 L389.333,134.386 L389.333,132.725 L389.968,132.725 L391.017,134.386 L391.66,134.386 L390.558,132.682 C391.13,132.623 391.572,132.33 391.572,131.635 C391.572,130.893 391.142,130.533 390.224,130.533 L388.736,130.533 L388.736,134.386 Z M389.333,131.018 L390.126,131.018 C390.533,131.018 390.972,131.096 390.972,131.608 C390.972,132.217 390.488,132.244 389.96,132.244 L389.333,132.244 L389.333,131.018 L389.333,131.018 Z" id="Fill-1"></path>
        </g>
    </g>
</svg>