<?xml version="1.0" encoding="utf-8"?>
<!-- Generated by Shoe Palace, Inc. http://www.shoepalace.com/ -->
<!DOCTYPE svg PUBLIC "-//W3C//DTD SVG 1.1//EN" "http://www.w3.org/Graphics/SVG/1.1/DTD/svg11.dtd">
<svg preserveAspectRatio="xMidYMid" width="256px" height="256px" viewBox="0 0 256 256" xmlns="http://www.w3.org/2000/svg" version="1.1" xmlns:xlink="http://www.w3.org/1999/xlink">
	<path fill="#ce1126" d="M139.063,24.871c-0.099-0.52-0.164-1.059-0.203-1.604c-0.523-7.555,5.164-14.107,12.719-14.639c7.563-0.527,14.111,5.168,14.641,12.724c0.525,7.555-5.162,14.107-12.718,14.639c-0.478,0.037-0.95,0.043-1.414,0.025c-0.307,0.079-0.489,0.116-0.753,0.349c-0.777,1.212,1.977,0.986,0.104,6.282c0,0-0.012,0.581-0.221,1.163c-0.146,2.033-0.929,8.057-1.041,11.266c0.398,0.465,0.51,0.691,0.467,1.819c-0.178,1.524-0.527,5.26-1.09,7.654c-0.478,2.051-1.314,2.442-1.99,2.944c-0.948,4.25-1.199,7.77-3.635,12.932c-0.222,3.912-0.496,4.978-1.316,6.888c-0.092,5.761,0.306,6.619-3.581,15.741c-1.004,4.267-0.05,7.218,1.01,11.651c1.084,4.556,4.09,6.459,4.537,11.125c1.053,10.987,0.789,18.468-1.567,27.083l2.057,4.873c2.555,1.171,8.891,4.373,5.378,9.441c4.946,2.602,12.423,5.362,18.587,10.636c2.479,2.063,5.1,4.317,7.451,6.961c4.476,0.696,3.998,1.053,7.314,3.091c9.754,5.98,25.396,17.848,34.465,26.246c1.562,0.913,2.197,1.568,3.459,2.23c0.195,0.377,0.252,0.465,0.207,0.567c-0.433,1.099-0.416,1.127-0.809,2.001c0.49,0.541,1.402,1.048,1.947,1.521c0.51,0.158,0.51-0.086,1.385-0.301c1.139,1.065,2.548,1.924,3.055,1.873c1.543-0.392,1.28-0.072,2.584-1.531c0.471-0.482,1.256,0.006,1.256,0.006c0.489-0.574,1.543-1.721,2.945-2.547c1.12-0.66,3.258-0.733,3.258-0.733c0.715,0.007,0.582,0.741,0.521,0.979c-0.81,0.416-2.522,0.875-3.483,1.586c-2.096,2.166-3.736,5.088-3.736,5.088c4.22-0.575,6.81,0.472,10.324,0.068c1.916-0.111,3.332,0.012,5.344-1.445c0,0,1.936-1.377,3.668-2.105c1.684-0.734,3.281-0.343,4.763,0.734c1.048,1.181,1.678,1.188,0.086,2.854c-0.575,0.646-1.408,1.371-2.467,2.418c-1.861,1.84-4.366,4.291-6.962,6.318c-2.627,2.051-5.607,3.895-7.471,4.738c-4.695,3.373-3.586,2.492-7.277,5.836c-0.467,0.416-1.703,1.162-2.303,1.561c-1.457,0.956-1.91,0.159-2.859-1.592c0,0-0.434-0.654-1.15-2.051c-0.783-1.524-1.371-3.269-1.134-3.238c-0.875-0.109-4.813-4.729-4.823-5.719c-0.832-0.189-4.385-3.631-4.513-4.286l-3.146-2.522c-3.602,0.748-4.428-1.486-13.936-8.234c-1.084-0.019-2.76-0.604-5.162-2.387c-4.291-3.437-14.584-11.209-16.328-12.101c-1.873-0.954-4.113-1.854-5.486-2.987c-2.059-0.379-3.184-0.594-4.213-0.881c-1.052-0.287-2.008-0.66-4.672-1.017c-4.334-0.538-8.828-2.332-13.107-4.476c-2.025-0.961-3.789-1.449-5.534-2.199c-3.912-1.651-7.269-3.142-9.866-3.74c-0.99-0.098-5.708-1.514-8.179-2.956c-0.857-0.44-1.354-0.863-1.917-0.992c-1.298-0.3-2.131,0.214-2.718,0.411c-3.171,1.652-6.142,3.079-8.885,4.555c-2.554,1.366-4.905,2.785-7.396,4.221c-2.248,1.297-4.844,2.521-7.512,3.795c0,0-7.611,3.814-11.768,5.297c-3.606,2.943-10.978,8.037-15.477,10.562c-2.228,1.06-6.557,3.802-8.553,4.414c-1.139,0.918-5.198,3.813-8.375,6.202c-2.456,1.837-4.311,3.386-4.311,3.386c-1.426,1.279-1.329,1.886-4.041,0.733c-0.753,0.617-1.334,1.004-1.818,1.359c-1.959,1.42-2.125,1.078-2.841,1.039c-1.366,1.184-1.538,0.571-2.731,1.932c-0.784,1.214,0.019,0.924-1.635,1.513c-0.349,0.134-0.514,0.556-0.783,0.789c-1.329,1.097-1.334,4.188-4.518,4.409c-1.844,1.314-1.372,2.902-2.78,2.834c0.086,1.363-2.492,3.355-2.957,3.349c-4.06,1.401-4.341-1.584-9.215,0.644c-0.63,0.289-1.555,1.086-2.773,1.316c-2.143,0.404-4.733-0.02-6.313-1.242c-2.486-1.918-4.775-5.615-4.775-5.615c-0.791-1.867-0.331-3.049,2.137-4.813c1.028-0.654,1.218-1.145,2.945-1.262c0.857-0.323,0.624,0.172,2.156-0.378c0.887-0.318,0.887-0.093,2.675-0.245c0.41-0.275,0.985-0.374,1.757-0.625c1.415-0.466,2.792-0.984,2.792-0.984s0.36-0.361,1.72-0.232c1.151-0.473,2.333-1.172,2.939-1.387c-0.154-1.821,0.042-1.736,0.887-2.472c1.053-0.907,1.243-0.759,2.027-0.196c0.331-0.19,0.489-0.257,0.453-0.533c-0.129-0.948-0.942-1.396-0.697-3.488c-0.362-0.839-0.895-1.873-0.778-2.498c0.171-0.674,0.337-0.999,0.747-1.213c0.435-0.23,0.576,0.081,0.809,0.343c0.416,0.483,0.753,1.918,0.753,1.918c0.147,1.616,0.648,3.71,2.246,2.528c0.942-0.956,1.126-3.502,3.048-2.957l1.373,1.191c1.163-1.095,1.218-1.095,1.916-1.535c0,0-1.09-1.102-0.134-1.959c0.655-0.582,1.444-1,2.847-2.554c3.851-4.255,5.828-6.136,9.993-9.563c8.308-6.834,17.761-11.627,23.767-14.008c1.959-2.487,3.864-4.141,8.211-4.558c5.167-8.726,15.061-16.519,17.333-17.761c1.849-3.352,2.65-2.994,5.069-3.667c1.916-1.536,2.35-1.536,3.208-3.142c0.833-3.312-1.922-12.158,5.112-12.605c1.494-2.111,1.12-1.604,2.786-3.6c-1.126-2.78-1.591-5.105-1.897-7.107c-0.055-0.232-2.792-2.162-2.015-4.68c-1.163-1.383-3.336-4.612-4.016-6.124c-0.312,0.006-0.57-0.11-0.912-0.158c-0.355-0.057-0.797-0.037-1.292-0.08c-1.095,2.827-2.289,3.037-4.236,3.661c-3.478,7.41-4.703,10.548-14.542,16.675c-3.906,4.373-5.155,9.245-5.137,9.173c-0.673,1.443-0.435,3.467-0.08,4.549c-0.515,1.604-0.38,1.764-0.38,1.764c0.214,0.606,0.771,1.408,1.457,1.58c1.182,0.313,2.364,0.263,2.295,1.578c-0.159,1.646-2.32,1.377-3.343,1.193c-3.937-0.625-2.693-3.189-5.21-2.334c-1.929,1.262-2.651,4.982-5.799,4.501c-0.416-0.274-0.288-1.09-0.006-1.677c0.441-0.919,1.224-1.68,0.76-2.021c-2.045,0.644-6.148,2.004-6.148,2.004c-1.928,0.524-4.042-0.438-2.143-1.705c0.882-0.342,2.143-0.771,3.698-1.769c0,0,0.801-1.091-0.735-0.545c-1.678,0.601-4.151,0.974-5.927,0.776c0,0-3.679-0.482-4.151-0.771c-0.478-0.289-0.912-1.426,0.239-1.42c1.457,0.013,5.106-0.417,7.935-1.17c1.365-0.532,3.961-2.067,5.418-2.792c0,0,1.58-2.302,2.449-2.755c1.451-1.671,2.676-2.657,3.96-4.365c1.256-2.591,2.554-6.692,6.71-13.041c1.922-2.927,4.311-6.336,7.316-9.384c0,0,0.778-4.877,4.69-8.35c0.864-2.033,2.174-4.427,3.466-6.644c0.502-0.852,0.979-1.592,1.457-2.4c1.213-1.904,2.486-5.449,7.213-6.007c0,0,2.021-1.493,2.798-2.553c1.212-1.035,0.936-2.644,1.921-3.779c-1.502-1.47-5.354-4.231-5.728-8.07c-0.398-4.071,1.053-7.42,3.515-9.899c2.731-2.731,5.609-4.096,9.104-3.888c4.365,0.648,5.192,2.094,6.582,3.527c1.334,1.359,1.831,0.484,2.394,2.076c3.662,0.974,3.459,0.545,3.428,3.24c0.563,0.758,1.506,1.463,1.493,3.037c1.231-2.554,1.476-3.024,4.763-5.834c0.779-2.284,1.307-4.53,1.99-6.814c0.641-2.112,1.438-4.286,2.055-5.92c-0.654-4.617,0.691-5.381,2.484-9.428c-0.316-0.558-0.25-0.716-0.115-1.629c0.699-2.675,1.787-6.214,2.437-8.522c0,0,0.216-0.918,1.164-0.986c0.821-2.92,2.054-8.357,2.261-9.466c0.844-3.055,0.299-4.035-0.351-5.755c-0.208-0.563-0.11-1.366-0.472-1.99c-1.021-1.781-2.123-4.096-2.869-5.75c-0.485-1.053-1.252-5.021-1.252-5.021C138.494,22.844,139.063,24.871,139.063,24.871"/>
</svg>
