<?xml version="1.0" encoding="UTF-8"?>
<svg width="309px" height="162px" viewBox="0 0 309 162" version="1.1" xmlns="http://www.w3.org/2000/svg" xmlns:xlink="http://www.w3.org/1999/xlink">
    <!-- Generator: Sketch 47.1 (45422) - http://www.bohemiancoding.com/sketch -->
    <title>Fill 1</title>
    <desc>Created with Sketch.</desc>
    <defs></defs>
    <g id="Page-1" stroke="none" stroke-width="1" fill="none" fill-rule="evenodd">
        <g id="nike-logo" transform="translate(-107.000000, 0.000000)" fill="#1A1919">
            <path d="M357.545,4.071 L358.022,4.071 C358.342,4.071 358.567,4.02 358.698,3.916 C358.829,3.812 358.893,3.678 358.893,3.515 C358.893,3.35 358.831,3.217 358.708,3.114 C358.581,3.01 358.37,2.959 358.069,2.959 L357.545,2.959 L357.545,4.071 Z M356.45,2.189 L358.424,2.189 C358.983,2.189 359.387,2.303 359.639,2.527 C359.889,2.756 360.016,3.059 360.016,3.438 C360.016,3.735 359.918,3.992 359.727,4.209 C359.538,4.426 359.237,4.584 358.827,4.681 C358.997,4.747 359.118,4.815 359.2,4.887 C359.311,4.987 359.43,5.138 359.551,5.336 C359.559,5.35 359.799,5.776 360.268,6.613 L358.965,6.613 C358.542,5.772 358.258,5.27 358.114,5.105 C357.969,4.943 357.825,4.861 357.68,4.861 C357.647,4.861 357.604,4.866 357.545,4.875 L357.545,6.613 L356.45,6.613 L356.45,2.189 Z M361.653,4.402 C361.653,3.48 361.327,2.694 360.678,2.044 C360.028,1.393 359.243,1.066 358.323,1.066 C357.405,1.066 356.62,1.393 355.969,2.044 C355.319,2.694 354.995,3.48 354.995,4.402 C354.995,5.32 355.319,6.108 355.969,6.758 C356.62,7.408 357.405,7.736 358.323,7.736 C359.243,7.736 360.028,7.408 360.678,6.758 C361.327,6.108 361.653,5.32 361.653,4.402 Z M362.456,4.402 C362.456,5.141 362.272,5.83 361.903,6.468 C361.534,7.107 361.03,7.61 360.393,7.98 C359.754,8.348 359.065,8.531 358.325,8.531 C357.59,8.531 356.903,8.348 356.264,7.98 C355.625,7.61 355.122,7.107 354.752,6.468 C354.381,5.83 354.196,5.141 354.196,4.402 C354.196,3.664 354.381,2.976 354.752,2.335 C355.122,1.696 355.625,1.192 356.264,0.822 C356.903,0.455 357.59,0.271 358.325,0.271 C359.065,0.271 359.754,0.455 360.393,0.822 C361.03,1.192 361.534,1.696 361.903,2.335 C362.272,2.976 362.456,3.664 362.456,4.402 Z M158.593,102.921 L159.071,102.921 C159.391,102.921 159.615,102.871 159.746,102.765 C159.875,102.663 159.943,102.528 159.943,102.365 C159.943,102.2 159.879,102.067 159.754,101.965 C159.627,101.86 159.417,101.809 159.116,101.809 L158.593,101.809 L158.593,102.921 Z M157.499,101.042 L159.473,101.042 C160.032,101.042 160.436,101.153 160.688,101.377 C160.937,101.606 161.063,101.908 161.063,102.288 C161.063,102.584 160.968,102.842 160.777,103.059 C160.584,103.276 160.284,103.432 159.873,103.53 C160.042,103.596 160.168,103.665 160.249,103.737 C160.359,103.838 160.478,103.989 160.6,104.185 C160.609,104.201 160.847,104.625 161.317,105.463 L160.015,105.463 C159.591,104.625 159.306,104.12 159.163,103.958 C159.019,103.793 158.873,103.709 158.728,103.709 C158.697,103.709 158.651,103.713 158.593,103.727 L158.593,105.463 L157.499,105.463 L157.499,101.042 Z M162.702,103.252 C162.702,102.331 162.375,101.545 161.725,100.894 C161.075,100.241 160.291,99.918 159.371,99.918 C158.453,99.918 157.669,100.241 157.018,100.894 C156.367,101.545 156.042,102.331 156.042,103.252 C156.042,104.17 156.367,104.958 157.018,105.61 C157.669,106.259 158.453,106.586 159.371,106.586 C160.291,106.586 161.075,106.259 161.725,105.61 C162.375,104.958 162.702,104.17 162.702,103.252 Z M163.506,103.252 C163.506,103.991 163.321,104.678 162.952,105.319 C162.583,105.958 162.078,106.462 161.439,106.831 C160.801,107.198 160.111,107.381 159.374,107.381 C158.639,107.381 157.952,107.198 157.313,106.831 C156.674,106.462 156.169,105.958 155.8,105.319 C155.432,104.678 155.246,103.991 155.246,103.252 C155.246,102.513 155.432,101.825 155.8,101.186 C156.169,100.545 156.674,100.042 157.313,99.674 C157.952,99.305 158.639,99.122 159.374,99.122 C160.111,99.122 160.801,99.305 161.439,99.674 C162.078,100.042 162.583,100.545 162.952,101.186 C163.321,101.825 163.506,102.513 163.506,103.252 Z M148.996,83.968 L168.295,83.968 L182.191,47.489 L180.646,83.968 L201.104,83.968 L232.372,0.299 L213.265,0.299 L198.981,37.26 L201.299,0.299 L180.646,0.299 L148.996,83.968 Z M235.46,0.299 L204.386,83.968 L223.686,83.968 L254.954,0.299 L235.46,0.299 Z M281.2,78.177 L309.186,2.519 L279.463,34.171 L281.2,78.177 Z M146.147,55.885 C146.147,55.885 138.186,70.939 138.186,83.968 C138.186,83.968 137.462,114.655 169.164,114.655 L173.506,114.655 C173.506,114.655 179.875,116.68 289.594,83.968 L261.805,83.968 L260.356,49.515 L247.329,83.968 L227.354,83.968 L258.91,0.299 L278.018,0.299 L269.333,24.329 L289.885,0.299 L350.104,0.299 L344.891,14.196 L324.336,14.196 L317.969,31.855 L337.075,31.855 L330.997,47.489 L312.178,47.489 L304.652,68.043 L327.235,68.043 L325.497,74.122 C325.497,74.122 407.424,52.989 416.11,50.673 C416.11,50.673 182.611,161.328 144.396,161.328 C144.396,161.328 107.499,161.553 107.499,131.444 C107.499,131.444 103.301,103.364 146.147,55.885 L146.147,55.885 Z" id="Fill-1"></path>
        </g>
    </g>
</svg>